Patient4_TMGait_0pt7_01_right_47_EMG.mot
version=1
nRows=37
nColumns=33
inDegrees=no
endheader
time	1LAddLong	2LGlutMax	3LGlutMed	4LIliopsoas	5LSemiMemb	6LBicFemLong	7LRecFem	8LVastMed	9LVastLat	10LGasMed	11LTibAnt	12lTibPost	13LPeroneusLong	14LSol	15LExtDigLong	16LFlexDigLong	17RAddLong	18RGlutMax	19RGlutMed	20RIliopsoas	21RSemiMemb	22RBicFemLong	23RRecFem	24RVastMed	25RVastLat	26RGasMed	27RTibAnt	28RTibPost	29RPeroneusLong	30RSol	31RExtDigLong	32RFlexDigLong
54.37	-0.015106	-0.45273	-0.084534	0.016785	0.01236	0.00824	0.31586	-0.00412	0.26535	0.004883	0.079346	-0.005341	-0.041351	0.2861	0.000153	0.005951	-0.10086	0.18112	0.10834	-0.10178	-0.030212	0.097046	0.3566	0.12726	-0.2655	0.10895	-0.090027	-0.064545	0.62363	-0.52536	-0.001526	-0.012207
54.371	-0.021362	-0.40588	-0.062561	-0.001831	0.016785	0.007324	0.34317	0.001221	0.30533	-0.003967	0.17334	-0.012054	-0.056305	0.31097	-0.014954	0.027008	-0.10254	0.22537	-0.1297	-0.13397	0.14923	-0.25589	0.34225	0.22034	-0.3273	0.12558	-0.25925	0.051575	0.40192	-0.23453	0.002747	-0.007019
54.372	-0.015717	-0.43137	-0.1712	-0.015717	0.019836	0.022736	0.36255	0.001526	0.3093	-0.008392	0.024719	-0.001984	0.014801	0.31128	-0.067749	0.021973	-0.046387	0.067902	-1.5364	-0.075073	0.13306	-0.72022	0.34622	0.21942	-0.20721	0.050049	-0.12344	-0.10819	-0.23377	0.336	-0.003204	-0.010986
54.373	-0.009308	-0.36621	-0.15808	0.031738	0.014954	0.011902	0.36362	-0.000916	0.30319	0.014038	-0.057373	-0.005493	-0.00412	0.30167	-0.37796	0.014191	-0.024567	0.10895	-2.113	0.16571	0.16541	-0.97672	0.48584	0.11154	-0.17288	-0.072021	0.062103	-0.33264	-0.89249	0.25375	0.002289	-0.00885
54.374	-0.011444	-0.34546	-0.13214	0.081787	0.022125	0.009155	0.36606	-0.00946	0.27451	0.045624	0.077057	0.002289	-0.09613	0.21408	0.90241	0.0177	0.023956	0.081329	-1.5141	0.18768	0.092316	-0.88776	0.62485	-0.02655	-0.12634	-0.12512	0.056305	-0.17792	0.14908	0.061493	-0.000153	-0.006561
54.375	-0.019379	-0.31632	-0.08194	0.064087	0.018921	0.021973	0.35065	-0.008087	0.26062	0.01709	-0.14664	-0.000458	-0.07431	0.17456	0.15167	0.007477	0.08194	0.1532	-0.77316	0.13321	0.050659	-0.74478	0.61768	-0.14725	-0.15243	-0.039368	0.005493	0.13504	1.2517	0.09079	-0.006409	-0.000916
54.376	-0.011749	-0.24796	-0.064392	0.039063	0.015869	0.012054	0.37064	-0.004425	0.27527	0.010376	-0.16876	-0.003662	-0.064392	0.17761	-0.79956	-0.000153	0.095825	0.031281	0.64835	0.075531	0.10391	-0.66727	0.58395	-0.24139	-0.22934	-0.081482	0.043945	0.28595	-0.1532	0.29602	-0.001068	-0.004578
54.377	-0.008087	-0.22629	-0.066071	-0.01709	0.020142	0.018768	0.38422	-0.00473	0.28183	0.041809	-0.12909	0.001678	-0.085754	0.08728	-0.67291	-0.000916	0.049438	-0.037689	1.3411	-0.042267	-0.049591	-0.41412	0.4808	-0.15213	-0.2652	-0.10635	0.10346	0.13748	-0.75638	0.059509	-0.003052	-0.010376
54.378	-0.00412	-0.19928	-0.085907	-0.026398	0.0177	0.009003	0.4602	-0.007019	0.30151	0.051727	-0.17059	0.004272	-0.066986	-0.04715	-0.4805	0.012207	0.009003	-0.14801	0.08255	-0.11475	-0.31448	-0.07019	0.54245	0.005951	-0.14404	-0.15808	0.18341	0.027771	-0.50949	-0.021973	-0.00885	-0.007324
54.379	-0.00412	-0.1712	-0.04303	-0.024872	0.019531	-0.001373	0.6105	-0.004578	0.31281	0.0354	-0.12833	0.005188	-0.066528	-0.0737	-0.33737	0.021667	-0.016174	-0.33112	-0.71335	-0.070953	-0.37201	0.25467	0.57632	-0.019073	-0.031128	-0.12863	0.080414	-0.014801	1.7473	-0.16205	-0.001221	-0.010376
54.38	-0.006409	-0.12573	-0.028687	-0.013428	0.009766	0.000305	0.68649	-0.002747	0.31281	0.039673	-0.09903	0.006714	-0.078888	0.012054	0.077057	0.014191	-0.005188	-0.3865	-1.2206	-0.019073	-0.20111	0.39078	0.56808	0.11017	0.072632	-0.063171	-0.20477	-0.024567	3.4026	-0.41824	-0.003204	0.004578
54.381	-0.007782	-0.082703	-0.025177	-0.027771	0.01358	-0.010986	0.72418	-0.007324	0.29739	0.032196	-0.088959	-0.001678	-0.097809	0.044098	0.15747	0.018463	0.018463	-0.55466	-1.0851	0.03891	0.18005	0.44495	0.61951	0.10651	0.058594	0.049896	-0.14175	-0.032654	-0.37308	-0.36224	-0.003052	0.002289
54.382	-0.010071	-0.01358	-0.00824	-0.038757	0.017395	-0.014496	0.73547	-0.00061	0.22964	0.027924	-0.052032	0.007324	-0.10147	0.013885	0.13702	0.007782	0.081024	-0.51926	-0.94391	0.097504	0.096741	0.44617	0.58029	0.018005	0.015259	0.10544	0.072479	-0.050659	-2.1614	-0.20676	0.001678	-0.005188
54.383	-0.005798	0.074768	-0.008545	-0.026398	0.020142	-0.011292	0.74966	-0.006561	0.18799	0.02182	0.023651	-0.003662	-0.12116	0.016174	0.059357	0	0.10941	-0.25207	-0.9848	-0.018158	-0.2861	0.6279	0.55725	0.13504	-0.029602	0.12772	0.063782	-0.059967	-0.1326	-0.005035	0.001526	0.000763
54.384	-0.000153	0.065002	0.036163	0.002594	0.020752	-0.026398	0.7637	-0.012512	0.14145	0.019836	0.070496	0.002899	-0.14511	0.039673	0.001678	0.024872	0.04303	-0.47318	-0.66757	-0.15091	-0.24628	0.5014	0.54199	0.16998	-0.073853	0.13596	0.075226	-0.05722	-0.17075	0.094147	0.002441	-0.002441
54.385	0.001373	0.066681	0.054626	0.058441	0.016785	-0.016022	0.74356	-0.001526	0.10895	0.037689	0.064545	-0.000916	-0.16113	0.081635	0.097351	0.011292	-0.016785	-0.48538	-0.90622	-0.20874	-0.22308	0.15381	0.30182	0.17883	-0.061798	0.066833	0.10895	-0.041199	-0.62515	0.15198	-0.000763	-0.011139
54.386	-0.001984	0.075836	0.074615	0.055542	0.014496	-0.018616	0.56732	-0.001221	0.11261	0.040283	0.051727	-0.005188	-0.16571	0.08316	0.47348	0.016327	-0.016327	-0.51651	-1.0748	-0.24292	-0.17593	-0.13931	0.16098	0.052795	-0.06485	-0.031281	0.077209	-0.018311	-0.95215	-0.10864	-0.000916	-0.018005
54.387	0.000153	0.15442	0.059509	0.030975	0.02182	-0.024872	0.30319	0.003967	0.098419	0.029755	0.058289	-0.005035	-0.16525	0.13733	0.14694	0.01236	-0.025635	-0.5896	-1.2964	-0.37323	-0.1207	-0.075226	0.006866	-0.023651	-0.097198	0	0.11627	-0.022125	-0.59662	-0.31693	-0.001678	-0.023651
54.388	-0.003662	0.21027	0.051575	-0.020447	0.020599	-0.023041	0.12375	0.010834	0.090179	0.009766	0.084229	0.000458	-0.095825	0.15274	0.34058	0.014648	-0.09903	-0.56686	-1.1429	-0.26825	0.009766	0.1181	-0.22125	0.011749	-0.018311	-0.075989	0.10483	-0.083618	0.059814	-0.24735	-0.000916	-0.014801
54.389	-0.014496	0.28351	0.025482	-0.025787	0.027618	-0.03067	0.11276	0.009766	0.069122	-0.027161	0.23438	0.003052	-0.053406	0.19379	0.21744	0.020142	-0.14679	-0.5513	-0.5275	-0.035553	0.50461	0.5571	-0.15579	0.13321	0.10086	-0.24567	0.065002	-0.009003	0.22385	-0.10239	-0.002441	-0.010071
54.39	-0.016022	0.32303	0.013885	-0.022736	0.020294	-0.018005	0.19699	-0.006104	0.056763	-0.067749	0.21393	-0.002136	-0.08667	0.22919	0.31662	0.022125	-0.089569	-0.37537	0.37781	0.068054	0.38742	0.4985	0.066071	0.13168	-0.002747	-0.12421	-0.036316	0.055695	0.76553	-0.23438	-0.001678	-0.010376
54.391	-0.010529	0.31174	0.022125	-0.018005	0.014648	-0.007019	0.30319	0.006561	0.060425	-0.10346	-0.039825	0.001984	-0.066223	0.31815	0.12039	0.030975	0.005493	-0.28229	-0.2417	0.019836	-0.15366	0.16281	0.25238	-0.088654	-0.14526	-0.040894	0.040131	-0.027771	0.26108	-0.31464	-0.00412	-0.003357
54.392	-0.00946	0.31647	0.039978	-0.006409	0.014496	-0.009155	0.27084	0.002136	0.041656	-0.079803	-0.25238	0.006866	-0.095062	0.34012	0.57098	0.030823	0.027771	-0.32867	-1.1229	-0.054016	-0.29282	0.040436	0.18875	-0.050354	-0.14328	-0.023193	0.11643	-0.068512	-0.16769	-0.26916	-0.002136	-0.021057
54.393	-0.00412	0.38559	0.040894	-0.023346	0.0177	0.001221	0.15442	0.002289	0.026703	-0.065613	-0.36804	0.011749	-0.10712	0.42572	0.28488	0.018311	0.009613	-0.40161	-1.1624	-0.066223	-0.30533	-0.10437	0.051727	0.015106	0.020752	-0.023804	0.14999	-0.063934	-0.14816	-0.20432	-0.00061	-0.016022
54.394	-0.014801	0.38284	0.041046	-0.00824	0.010986	-0.002899	0.1442	0.006866	0.028381	-0.085144	-0.25879	0.005493	-0.03891	0.41397	-0.41367	0.018311	0.012512	-0.23636	-0.94711	-0.069427	-0.12421	-0.32486	0.097351	-0.031433	0.18463	-0.052948	0.1088	-0.034637	0.06073	-0.063171	-0.001068	-0.016479
54.395	-0.010223	0.36072	0.041962	-0.007782	0.01358	-0.012665	0.19394	0.001373	0.013275	-0.13123	0.008392	0.005188	0.09201	0.30701	-0.46051	0.006104	-0.038147	-0.27634	-0.46539	-0.017853	0.21011	-0.15442	0.17136	-0.02243	0.1474	-0.1947	0.047302	-0.035248	0.18387	0.006561	0.003204	-0.018005
54.396	-0.004883	0.3389	0.050659	-0.003052	0.011139	-0.017395	0.25269	-0.002136	0.031128	-0.12985	0.17456	0.005951	0.13687	0.20554	-0.5928	-0.002136	-0.052795	-0.50873	-0.43808	-0.028229	0.16586	0.088196	0.18158	0.019226	0.13733	-0.14374	0.031433	-0.037842	0.25101	-0.077209	0.001678	-0.006256
54.397	0.026703	0.29129	0.058441	0.001678	0.013428	-0.02121	0.31342	-0.008545	0.020447	-0.051422	0.12634	0.005951	-0.04364	0.089722	-0.36865	-0.00824	-0.026703	-0.52139	-0.87021	-0.11688	0.052032	0.10742	0.13336	0.23682	0.15762	0.040283	-0.039215	-0.046082	0.21347	-0.27573	0.004425	-0.007019
54.398	0.02243	0.27161	0.052795	0.005035	0.007172	-0.020905	0.19272	-0.012054	-0.019836	-0.089722	-0.18326	0.007782	-0.10483	0.1239	-0.070343	-0.014648	-0.027161	-0.35645	-1.0275	-0.093689	0.35446	0.15732	0.24933	0.26047	0.075531	0.093994	-0.037231	-0.008087	0.093994	-0.34668	0.008087	-0.018005
54.399	0.021515	0.31113	0.046234	0.045624	0.007629	-0.034332	0.1207	-0.011444	-0.02594	-0.13001	-0.14847	0.008087	-0.058441	0.024414	-0.63095	-0.000916	0.024567	-0.21805	-1.0381	0.11978	0.33951	0.001984	0.37735	0.016327	-0.008392	-0.015411	0.075989	-0.031738	-0.21118	0.054169	-0.00885	-0.010986
54.4	0.00412	0.34302	0.043793	0.062408	0.00473	-0.024719	0.048218	-0.018921	-0.056763	-0.13351	-0.18875	0.00946	-0.055542	-0.074158	-0.16541	-0.003662	0.063782	-0.11551	-0.74158	0.19531	0.34225	-0.43259	0.52017	-0.068512	-0.084381	-0.11078	0.095367	0.079803	-0.25559	0.39948	-0.003357	-0.00885
54.401	0.002899	0.38635	0.070496	0.051727	0.010071	-0.036316	0.023499	-0.016327	-0.0914	-0.099335	-0.15595	0.00824	-0.073853	-0.035858	-0.2684	-0.01709	0.043335	-0.13534	0.047455	0.19287	0.20035	-0.57449	0.45959	-0.088348	-0.15778	-0.13443	-0.000153	-0.021667	-0.10788	0.48767	-0.001373	-0.000916
54.402	-0.002594	0.39032	0.079193	0.050964	0.012665	-0.036774	0.15167	-0.005951	-0.11292	-0.085754	-0.074158	0.007324	-0.081024	-0.083618	-0.35492	0.005646	0.011444	-0.22507	0.36896	0.19516	-0.090485	-0.47669	0.21301	-0.053558	-0.20798	-0.19974	0.12222	-0.035858	0.09079	0.5661	-0.001984	-0.005035
54.403	-0.011444	0.42923	0.1236	0.013275	0.010986	-0.034637	0.26901	-0.008392	-0.13611	-0.075378	-0.18631	0.010376	-0.047607	-0.094757	-0.2211	-0.007172	-0.016479	-0.28366	1.3884	0.14297	-0.38071	-0.27741	-0.070343	-0.019073	-0.17151	0.072327	0.25101	-0.020905	0.43152	0.32196	-0.002136	-0.00946
54.404	-0.019684	0.42801	0.1857	0.036316	0.012054	-0.032349	0.24506	-0.00885	-0.16968	-0.06485	0.042877	0.00824	-0.091705	-0.092773	-0.13672	-0.003967	-0.035248	-0.32059	1.0463	0.15701	-0.045166	-0.18951	-0.49347	0.10925	-0.000763	0.18448	0.18555	0.11856	-0.15701	-0.1973	-0.00473	-0.014038
54.405	-0.01709	0.43976	0.19836	0.03006	0.018311	-0.027313	0.18219	-0.011292	-0.16785	-0.065918	0.25192	0.019684	-0.1181	-0.040436	0.22919	-0.001373	-0.007477	-0.40726	-0.20737	0.19165	0.16907	-0.38559	-0.3389	0.20615	0.17273	0.27603	0.027008	0.012207	-0.2272	-0.7576	-0.002747	-0.017395
54.406	-0.009613	0.4158	0.15747	0.03067	0.011749	-0.004883	0.078278	-0.019073	-0.16007	-0.062714	0.16266	0.002747	-0.084686	-0.034332	0.3241	-0.008698	0.046234	-0.57053	-0.11398	0.10086	0.19974	-0.53711	-0.057678	0.15243	0.1973	0.17868	0.030823	0.010376	-0.68787	-0.6279	-0.002594	-0.033722
